TitilliumWeb-Bold.ufo
<glyph name="exclam" format="2">
  <advance width="280"/>
  <unicode hex="0021"/>
  <outline>
    <contour>
      <point x="81" y="250" type="line"/>
      <point x="199" y="250" type="line"/>
      <point x="213" y="680" type="line"/>
      <point x="68" y="680" type="line"/>
    </contour>
    <contour>
      <point x="68" y="0" type="line"/>
      <point x="212" y="0" type="line"/>
      <point x="212" y="161" type="line"/>
      <point x="68" y="161" type="line"/>
    </contour>
  </outline>
</glyph>
<glyph name="numbersign" format="2">
  <advance width="560"/>
  <unicode hex="0023"/>
  <outline>
    <contour>
      <point x="112" y="0" type="line"/>
      <point x="228" y="0" type="line"/>
      <point x="228" y="149" type="line"/>
      <point x="332" y="149" type="line"/>
      <point x="332" y="0" type="line"/>
      <point x="448" y="0" type="line"/>
      <point x="448" y="149" type="line"/>
      <point x="544" y="149" type="line"/>
      <point x="544" y="261" type="line"/>
      <point x="448" y="261" type="line"/>
      <point x="448" y="387" type="line"/>
      <point x="544" y="387" type="line"/>
      <point x="544" y="499" type="line"/>
      <point x="448" y="499" type="line"/>
      <point x="448" y="660" type="line"/>
      <point x="332" y="660" type="line"/>
      <point x="332" y="499" type="line"/>
      <point x="228" y="499" type="line"/>
      <point x="228" y="660" type="line"/>
      <point x="112" y="660" type="line"/>
      <point x="112" y="499" type="line"/>
      <point x="16" y="499" type="line"/>
      <point x="16" y="387" type="line"/>
      <point x="112" y="387" type="line"/>
      <point x="112" y="261" type="line"/>
      <point x="16" y="261" type="line"/>
      <point x="16" y="149" type="line"/>
      <point x="112" y="149" type="line"/>
    </contour>
    <contour>
      <point x="228" y="261" type="line"/>
      <point x="228" y="387" type="line"/>
      <point x="332" y="387" type="line"/>
      <point x="332" y="261" type="line"/>
    </contour>
  </outline>
</glyph>
<glyph name="comma" format="2">
  <advance width="263"/>
  <unicode hex="002C"/>
  <outline>
    <contour>
      <point x="20" y="-123" type="line"/>
      <point x="128" y="-123" type="line"/>
      <point x="218" y="137" type="line"/>
      <point x="70" y="137" type="line"/>
    </contour>
  </outline>
</glyph>
<glyph name="one" format="2">
  <advance width="560"/>
  <unicode hex="0031"/>
  <outline>
    <contour>
      <point x="280" y="0" type="line"/>
      <point x="418" y="0" type="line"/>
      <point x="418" y="660" type="line"/>
      <point x="292" y="660" type="line"/>
      <point x="74" y="515" type="line"/>
      <point x="137" y="412" type="line"/>
      <point x="280" y="504" type="line"/>
    </contour>
  </outline>
</glyph>
<glyph name="four" format="2">
  <advance width="560"/>
  <unicode hex="0034"/>
  <outline>
    <contour>
      <point x="320" y="0" type="line"/>
      <point x="458" y="0" type="line"/>
      <point x="458" y="109" type="line"/>
      <point x="521" y="109" type="line"/>
      <point x="521" y="229" type="line"/>
      <point x="458" y="229" type="line"/>
      <point x="458" y="414" type="line"/>
      <point x="320" y="414" type="line"/>
      <point x="320" y="229" type="line"/>
      <point x="178" y="229" type="line"/>
      <point x="355" y="660" type="line"/>
      <point x="203" y="660" type="line"/>
      <point x="40" y="214" type="line"/>
      <point x="40" y="109" type="line"/>
      <point x="320" y="109" type="line"/>
    </contour>
  </outline>
</glyph>
<glyph name="seven" format="2">
  <advance width="560"/>
  <unicode hex="0037"/>
  <outline>
    <contour>
      <point x="256" y="-12" type="line"/>
      <point x="491" y="504" type="line"/>
      <point x="491" y="660" type="line"/>
      <point x="69" y="660" type="line"/>
      <point x="69" y="537" type="line"/>
      <point x="353" y="537" type="line"/>
      <point x="353" y="505" type="line"/>
      <point x="128" y="24" type="line"/>
    </contour>
  </outline>
</glyph>
<glyph name="less" format="2">
  <advance width="560"/>
  <unicode hex="003C"/>
  <outline>
    <contour>
      <point x="472" y="10" type="line"/>
      <point x="472" y="146" type="line"/>
      <point x="211" y="254" type="line"/>
      <point x="472" y="353" type="line"/>
      <point x="472" y="489" type="line"/>
      <point x="66" y="306" type="line"/>
      <point x="66" y="196" type="line"/>
    </contour>
  </outline>
</glyph>
<glyph name="greater" format="2">
  <advance width="560"/>
  <unicode hex="003E"/>
  <outline>
    <contour>
      <point x="88" y="10" type="line"/>
      <point x="494" y="196" type="line"/>
      <point x="494" y="306" type="line"/>
      <point x="88" y="489" type="line"/>
      <point x="88" y="353" type="line"/>
      <point x="349" y="254" type="line"/>
      <point x="88" y="146" type="line"/>
    </contour>
  </outline>
</glyph>
<glyph name="D" format="2">
  <advance width="638"/>
  <unicode hex="0044"/>
  <outline>
    <contour>
      <point x="74" y="0" type="line"/>
      <point x="303" y="0" type="line" smooth="yes"/>
      <point x="547" y="0"/>
      <point x="592" y="121"/>
      <point x="592" y="353" type="curve" smooth="yes"/>
      <point x="592" y="579"/>
      <point x="540" y="680"/>
      <point x="303" y="680" type="curve" smooth="yes"/>
      <point x="74" y="680" type="line"/>
    </contour>
    <contour>
      <point x="212" y="120" type="line"/>
      <point x="212" y="560" type="line"/>
      <point x="303" y="560" type="line" smooth="yes"/>
      <point x="437" y="560"/>
      <point x="450" y="502"/>
      <point x="450" y="353" type="curve" smooth="yes"/>
      <point x="450" y="202"/>
      <point x="437" y="120"/>
      <point x="303" y="120" type="curve" smooth="yes"/>
    </contour>
  </outline>
</glyph>
<glyph name="E" format="2">
  <advance width="554"/>
  <unicode hex="0045"/>
  <outline>
    <contour>
      <point x="74" y="0" type="line"/>
      <point x="514" y="0" type="line"/>
      <point x="514" y="120" type="line"/>
      <point x="212" y="120" type="line"/>
      <point x="212" y="283" type="line"/>
      <point x="454" y="283" type="line"/>
      <point x="454" y="401" type="line"/>
      <point x="212" y="401" type="line"/>
      <point x="212" y="560" type="line"/>
      <point x="514" y="560" type="line"/>
      <point x="514" y="680" type="line"/>
      <point x="74" y="680" type="line"/>
    </contour>
  </outline>
</glyph>
<glyph name="J" format="2">
  <advance width="302"/>
  <unicode hex="004A"/>
  <outline>
    <contour>
      <point x="19" y="-70" type="line"/>
      <point x="169" y="-70"/>
      <point x="233" y="-35"/>
      <point x="233" y="115" type="curve"/>
      <point x="232" y="680" type="line"/>
      <point x="95" y="680" type="line"/>
      <point x="95" y="121" type="line" smooth="yes"/>
      <point x="95" y="64"/>
      <point x="69" y="50"/>
      <point x="19" y="50" type="curve"/>
    </contour>
  </outline>
</glyph>
<glyph name="N" format="2">
  <advance width="693"/>
  <unicode hex="004E"/>
  <anchor x="354" y="0" name="bottom"/>
  <outline>
    <contour>
      <point x="74" y="0" type="line"/>
      <point x="212" y="0" type="line"/>
      <point x="212" y="560" type="line"/>
      <point x="222" y="560" type="line"/>
      <point x="392" y="0" type="line"/>
      <point x="619" y="0" type="line"/>
      <point x="619" y="680" type="line"/>
      <point x="481" y="680" type="line"/>
      <point x="481" y="120" type="line"/>
      <point x="471" y="120" type="line"/>
      <point x="307" y="680" type="line"/>
      <point x="74" y="680" type="line"/>
    </contour>
  </outline>
</glyph>
<glyph name="S" format="2">
  <advance width="544"/>
  <unicode hex="0053"/>
  <anchor x="270" y="0" name="bottom"/>
  <outline>
    <contour>
      <point x="272" y="-12" type="curve" smooth="yes"/>
      <point x="406" y="-12"/>
      <point x="507" y="57"/>
      <point x="507" y="205" type="curve" smooth="yes"/>
      <point x="507" y="318"/>
      <point x="462" y="359"/>
      <point x="315" y="406" type="curve" smooth="yes"/>
      <point x="201" y="442"/>
      <point x="174" y="457"/>
      <point x="174" y="500" type="curve" smooth="yes"/>
      <point x="174" y="545"/>
      <point x="209" y="572"/>
      <point x="283" y="572" type="curve" smooth="yes"/>
      <point x="325" y="572"/>
      <point x="421" y="563"/>
      <point x="482" y="556" type="curve"/>
      <point x="493" y="665" type="line"/>
      <point x="436" y="677"/>
      <point x="335" y="692"/>
      <point x="269" y="692" type="curve" smooth="yes"/>
      <point x="131" y="692"/>
      <point x="37" y="631"/>
      <point x="37" y="490" type="curve" smooth="yes"/>
      <point x="37" y="381"/>
      <point x="95" y="329"/>
      <point x="248" y="285" type="curve" smooth="yes"/>
      <point x="346" y="257"/>
      <point x="370" y="238"/>
      <point x="370" y="196" type="curve" smooth="yes"/>
      <point x="370" y="143"/>
      <point x="338" y="108"/>
      <point x="264" y="108" type="curve" smooth="yes"/>
      <point x="212" y="108"/>
      <point x="117" y="118"/>
      <point x="59" y="126" type="curve"/>
      <point x="45" y="19" type="line"/>
      <point x="103" y="6"/>
      <point x="204" y="-12"/>
    </contour>
  </outline>
</glyph>
<glyph name="W" format="2">
  <advance width="930"/>
  <unicode hex="0057"/>
  <outline>
    <contour>
      <point x="149" y="0" type="line"/>
      <point x="358" y="0" type="line"/>
      <point x="477" y="577" type="line"/>
      <point x="453" y="577" type="line"/>
      <point x="572" y="0" type="line"/>
      <point x="781" y="0" type="line"/>
      <point x="911" y="680" type="line"/>
      <point x="766" y="680" type="line"/>
      <point x="682" y="118" type="line"/>
      <point x="667" y="118" type="line"/>
      <point x="545" y="680" type="line"/>
      <point x="385" y="680" type="line"/>
      <point x="263" y="118" type="line"/>
      <point x="248" y="118" type="line"/>
      <point x="164" y="680" type="line"/>
      <point x="19" y="680" type="line"/>
    </contour>
  </outline>
</glyph>
<glyph name="underscore" format="2">
  <advance width="620"/>
  <unicode hex="005F"/>
  <outline>
    <contour>
      <point x="96" y="-187" type="line"/>
      <point x="524" y="-187" type="line"/>
      <point x="524" y="-73" type="line"/>
      <point x="96" y="-73" type="line"/>
    </contour>
  </outline>
</glyph>
<glyph name="c" format="2">
  <advance width="446"/>
  <unicode hex="0063"/>
  <outline>
    <contour>
      <point x="246" y="-12" type="curve" smooth="yes"/>
      <point x="287" y="-12"/>
      <point x="363" y="0"/>
      <point x="409" y="9" type="curve"/>
      <point x="405" y="116" type="line"/>
      <point x="371" y="113"/>
      <point x="317" y="108"/>
      <point x="289" y="108" type="curve" smooth="yes"/>
      <point x="193" y="108"/>
      <point x="174" y="143"/>
      <point x="174" y="255" type="curve" smooth="yes"/>
      <point x="174" y="355"/>
      <point x="192" y="392"/>
      <point x="288" y="392" type="curve" smooth="yes"/>
      <point x="316" y="392"/>
      <point x="371" y="387"/>
      <point x="405" y="384" type="curve"/>
      <point x="409" y="490" type="line"/>
      <point x="365" y="499"/>
      <point x="291" y="512"/>
      <point x="249" y="512" type="curve" smooth="yes"/>
      <point x="100" y="512"/>
      <point x="38" y="432"/>
      <point x="38" y="255" type="curve" smooth="yes"/>
      <point x="38" y="67"/>
      <point x="97" y="-12"/>
    </contour>
  </outline>
</glyph>
<glyph name="m" format="2">
  <advance width="839"/>
  <unicode hex="006D"/>
  <outline>
    <contour>
      <point x="62" y="0" type="line"/>
      <point x="196" y="0" type="line"/>
      <point x="196" y="374" type="line"/>
      <point x="215" y="382"/>
      <point x="253" y="392"/>
      <point x="285" y="392" type="curve" smooth="yes"/>
      <point x="347" y="392"/>
      <point x="355" y="347"/>
      <point x="355" y="257" type="curve" smooth="yes"/>
      <point x="355" y="0" type="line"/>
      <point x="489" y="0" type="line"/>
      <point x="489" y="259" type="line" smooth="yes"/>
      <point x="489" y="287"/>
      <point x="487" y="341"/>
      <point x="485" y="373" type="curve"/>
      <point x="508" y="381"/>
      <point x="549" y="392"/>
      <point x="578" y="392" type="curve" smooth="yes"/>
      <point x="638" y="392"/>
      <point x="648" y="343"/>
      <point x="648" y="267" type="curve" smooth="yes"/>
      <point x="648" y="0" type="line"/>
      <point x="782" y="0" type="line"/>
      <point x="782" y="271" type="line" smooth="yes"/>
      <point x="782" y="432"/>
      <point x="742" y="512"/>
      <point x="606" y="512" type="curve" smooth="yes"/>
      <point x="551" y="512"/>
      <point x="478" y="485"/>
      <point x="438" y="465" type="curve"/>
      <point x="408" y="497"/>
      <point x="369" y="512"/>
      <point x="313" y="512" type="curve" smooth="yes"/>
      <point x="277" y="512"/>
      <point x="225" y="489"/>
      <point x="195" y="472" type="curve"/>
      <point x="195" y="500" type="line"/>
      <point x="62" y="500" type="line"/>
    </contour>
  </outline>
</glyph>
<glyph name="p" format="2">
  <advance width="544"/>
  <unicode hex="0070"/>
  <outline>
    <contour>
      <point x="62" y="-210" type="line"/>
      <point x="196" y="-210" type="line"/>
      <point x="196" y="-4" type="line"/>
      <point x="216" y="-7"/>
      <point x="252" y="-12"/>
      <point x="279" y="-12" type="curve" smooth="yes"/>
      <point x="432" y="-12"/>
      <point x="506" y="41"/>
      <point x="506" y="254" type="curve" smooth="yes"/>
      <point x="506" y="440"/>
      <point x="441" y="512"/>
      <point x="309" y="512" type="curve" smooth="yes"/>
      <point x="273" y="512"/>
      <point x="223" y="490"/>
      <point x="195" y="473" type="curve"/>
      <point x="195" y="500" type="line"/>
      <point x="62" y="500" type="line"/>
    </contour>
    <contour>
      <point x="269" y="104" type="curve" smooth="yes"/>
      <point x="249" y="104"/>
      <point x="215" y="107"/>
      <point x="196" y="110" type="curve"/>
      <point x="196" y="372" type="line"/>
      <point x="216" y="381"/>
      <point x="253" y="392"/>
      <point x="283" y="392" type="curve" smooth="yes"/>
      <point x="336" y="392"/>
      <point x="370" y="355"/>
      <point x="370" y="254" type="curve" smooth="yes"/>
      <point x="370" y="148"/>
      <point x="349" y="104"/>
    </contour>
  </outline>
</glyph>
<glyph name="w" format="2">
  <advance width="772"/>
  <unicode hex="0077"/>
  <outline>
    <contour>
      <point x="119" y="0" type="line"/>
      <point x="329" y="0" type="line"/>
      <point x="386" y="306" type="line"/>
      <point x="443" y="0" type="line"/>
      <point x="653" y="0" type="line"/>
      <point x="748" y="500" type="line"/>
      <point x="616" y="500" type="line"/>
      <point x="555" y="114" type="line"/>
      <point x="531" y="114" type="line"/>
      <point x="455" y="490" type="line"/>
      <point x="317" y="490" type="line"/>
      <point x="241" y="114" type="line"/>
      <point x="217" y="114" type="line"/>
      <point x="156" y="500" type="line"/>
      <point x="24" y="500" type="line"/>
    </contour>
  </outline>
</glyph>
<glyph name="x" format="2">
  <advance width="474"/>
  <unicode hex="0078"/>
  <outline>
    <contour>
      <point x="14" y="0" type="line"/>
      <point x="157" y="0" type="line"/>
      <point x="237" y="153" type="line"/>
      <point x="318" y="0" type="line"/>
      <point x="461" y="0" type="line"/>
      <point x="319" y="255" type="line"/>
      <point x="461" y="500" type="line"/>
      <point x="318" y="500" type="line"/>
      <point x="237" y="345" type="line"/>
      <point x="157" y="500" type="line"/>
      <point x="14" y="500" type="line"/>
      <point x="151" y="251" type="line"/>
    </contour>
  </outline>
</glyph>
<glyph name="sterling" format="2">
  <advance width="560"/>
  <unicode hex="00A3"/>
  <outline>
    <contour>
      <point x="75" y="0" type="line"/>
      <point x="414" y="0" type="line"/>
      <point x="495" y="18" type="line"/>
      <point x="474" y="130" type="line"/>
      <point x="405" y="114" type="line"/>
      <point x="281" y="114" type="line"/>
      <point x="281" y="319" type="line"/>
      <point x="434" y="319" type="line"/>
      <point x="434" y="433" type="line"/>
      <point x="281" y="433" type="line"/>
      <point x="281" y="486" type="line" smooth="yes"/>
      <point x="281" y="531"/>
      <point x="297" y="551"/>
      <point x="333" y="551" type="curve" smooth="yes"/>
      <point x="379" y="551"/>
      <point x="435" y="546"/>
      <point x="464" y="543" type="curve"/>
      <point x="468" y="647" type="line"/>
      <point x="434" y="657"/>
      <point x="370" y="671"/>
      <point x="315" y="671" type="curve" smooth="yes"/>
      <point x="208" y="671"/>
      <point x="149" y="638"/>
      <point x="149" y="492" type="curve" smooth="yes"/>
      <point x="149" y="433" type="line"/>
      <point x="85" y="433" type="line"/>
      <point x="85" y="319" type="line"/>
      <point x="149" y="319" type="line"/>
      <point x="149" y="114" type="line"/>
      <point x="75" y="114" type="line"/>
    </contour>
  </outline>
</glyph>
<glyph name="yen" format="2">
  <advance width="560"/>
  <unicode hex="00A5"/>
  <outline>
    <contour>
      <point x="213" y="0" type="line"/>
      <point x="351" y="0" type="line"/>
      <point x="351" y="134" type="line"/>
      <point x="502" y="134" type="line"/>
      <point x="502" y="246" type="line"/>
      <point x="351" y="246" type="line"/>
      <point x="351" y="273" type="line"/>
      <point x="351" y="291" type="line"/>
      <point x="502" y="291" type="line"/>
      <point x="502" y="403" type="line"/>
      <point x="413" y="403" type="line"/>
      <point x="556" y="660" type="line"/>
      <point x="403" y="660" type="line"/>
      <point x="281" y="449" type="line"/>
      <point x="158" y="660" type="line"/>
      <point x="5" y="660" type="line"/>
      <point x="150" y="403" type="line"/>
      <point x="58" y="403" type="line"/>
      <point x="58" y="291" type="line"/>
      <point x="213" y="291" type="line"/>
      <point x="213" y="273" type="line"/>
      <point x="213" y="246" type="line"/>
      <point x="58" y="246" type="line"/>
      <point x="58" y="134" type="line"/>
      <point x="213" y="134" type="line"/>
    </contour>
  </outline>
</glyph>
<glyph name="dieresis" format="2">
  <advance width="268"/>
  <unicode hex="00A8"/>
  <outline>
    <contour>
      <point x="186" y="596" type="line"/>
      <point x="314" y="596" type="line"/>
      <point x="314" y="728" type="line"/>
      <point x="186" y="728" type="line"/>
    </contour>
    <contour>
      <point x="-30" y="596" type="line"/>
      <point x="98" y="596" type="line"/>
      <point x="98" y="728" type="line"/>
      <point x="-30" y="728" type="line"/>
    </contour>
  </outline>
</glyph>
<glyph name="ordfeminine" format="2">
  <advance width="416"/>
  <unicode hex="00AA"/>
  <outline>
    <contour>
      <point x="367" y="313" type="curve"/>
      <point x="369" y="395" type="line"/>
      <point x="362" y="396"/>
      <point x="356" y="399"/>
      <point x="351" y="403" type="curve"/>
      <point x="351" y="544" type="line" smooth="yes"/>
      <point x="351" y="631"/>
      <point x="301" y="659"/>
      <point x="205" y="659" type="curve" smooth="yes"/>
      <point x="151" y="659"/>
      <point x="105" y="650"/>
      <point x="58" y="633" type="curve"/>
      <point x="61" y="558" type="line"/>
      <point x="103" y="561"/>
      <point x="168" y="564"/>
      <point x="192" y="565" type="curve" smooth="yes"/>
      <point x="221" y="566"/>
      <point x="236" y="560"/>
      <point x="236" y="550" type="curve" smooth="yes"/>
      <point x="236" y="369" type="line" smooth="yes"/>
      <point x="236" y="319"/>
      <point x="288" y="313"/>
    </contour>
    <contour>
      <point x="147" y="314" type="curve" smooth="yes"/>
      <point x="191" y="314"/>
      <point x="231" y="333"/>
      <point x="265" y="368" type="curve"/>
      <point x="275" y="427" type="line"/>
      <point x="247" y="413"/>
      <point x="212" y="402"/>
      <point x="188" y="402" type="curve" smooth="yes"/>
      <point x="167" y="402"/>
      <point x="157" y="411"/>
      <point x="157" y="427" type="curve" smooth="yes"/>
      <point x="157" y="444"/>
      <point x="168" y="453"/>
      <point x="189" y="455" type="curve" smooth="yes"/>
      <point x="281" y="461" type="line"/>
      <point x="281" y="530" type="line"/>
      <point x="169" y="525" type="line" smooth="yes"/>
      <point x="84" y="521"/>
      <point x="42" y="488"/>
      <point x="42" y="422" type="curve" smooth="yes"/>
      <point x="42" y="358"/>
      <point x="81" y="314"/>
    </contour>
  </outline>
</glyph>
<glyph name="degree" format="2">
  <advance width="560"/>
  <unicode hex="00B0"/>
  <outline>
    <contour>
      <point x="280" y="393" type="curve" smooth="yes"/>
      <point x="369" y="393"/>
      <point x="430" y="453"/>
      <point x="430" y="542" type="curve" smooth="yes"/>
      <point x="430" y="631"/>
      <point x="369" y="692"/>
      <point x="280" y="692" type="curve" smooth="yes"/>
      <point x="191" y="692"/>
      <point x="130" y="631"/>
      <point x="130" y="542" type="curve" smooth="yes"/>
      <point x="130" y="453"/>
      <point x="191" y="393"/>
    </contour>
    <contour>
      <point x="280" y="466" type="curve" smooth="yes"/>
      <point x="235" y="466"/>
      <point x="205" y="497"/>
      <point x="205" y="542" type="curve" smooth="yes"/>
      <point x="205" y="587"/>
      <point x="235" y="619"/>
      <point x="280" y="619" type="curve" smooth="yes"/>
      <point x="325" y="619"/>
      <point x="357" y="587"/>
      <point x="357" y="542" type="curve" smooth="yes"/>
      <point x="357" y="497"/>
      <point x="325" y="466"/>
    </contour>
  </outline>
</glyph>
<glyph name="paragraph" format="2">
  <advance width="599"/>
  <unicode hex="00B6"/>
  <outline>
    <contour>
      <point x="221" y="0" type="line"/>
      <point x="335" y="0" type="line"/>
      <point x="335" y="566" type="line"/>
      <point x="397" y="566" type="line"/>
      <point x="397" y="0" type="line"/>
      <point x="511" y="0" type="line"/>
      <point x="511" y="566" type="line"/>
      <point x="547" y="566" type="line"/>
      <point x="547" y="680" type="line"/>
      <point x="216" y="680" type="line" smooth="yes"/>
      <point x="103" y="680"/>
      <point x="28" y="597"/>
      <point x="28" y="482" type="curve" smooth="yes"/>
      <point x="28" y="367"/>
      <point x="101" y="286"/>
      <point x="214" y="286" type="curve" smooth="yes"/>
      <point x="221" y="286" type="line"/>
    </contour>
  </outline>
</glyph>
<glyph name="cedilla" format="2">
  <advance width="264"/>
  <unicode hex="00B8"/>
  <outline>
    <contour>
      <point x="123" y="-241" type="curve" smooth="yes"/>
      <point x="191" y="-241"/>
      <point x="234" y="-205"/>
      <point x="234" y="-127" type="curve" smooth="yes" name="hr00"/>
      <point x="234" y="-52"/>
      <point x="189" y="-38"/>
      <point x="111" y="-37" type="curve"/>
      <point x="111" y="1" type="line"/>
      <point x="58" y="1" type="line"/>
      <point x="58" y="-105" type="line"/>
      <point x="82" y="-105" type="line" smooth="yes"/>
      <point x="109" y="-105"/>
      <point x="120" y="-110"/>
      <point x="120" y="-127" type="curve" smooth="yes"/>
      <point x="120" y="-144"/>
      <point x="109" y="-153"/>
      <point x="82" y="-153" type="curve" smooth="yes"/>
      <point x="77" y="-153"/>
      <point x="36" y="-152"/>
      <point x="34" y="-152" type="curve"/>
      <point x="30" y="-230" type="line"/>
      <point x="52" y="-235"/>
      <point x="92" y="-241"/>
    </contour>
  </outline>
</glyph>
<glyph name="onesuperior" format="2">
  <advance width="280"/>
  <unicode hex="00B9"/>
  <outline>
    <contour>
      <point x="106" y="478" type="line"/>
      <point x="212" y="478" type="line"/>
      <point x="212" y="790" type="line"/>
      <point x="116" y="790" type="line"/>
      <point x="10" y="715" type="line"/>
      <point x="59" y="641" type="line"/>
      <point x="106" y="673" type="line"/>
    </contour>
  </outline>
</glyph>
<glyph name="AE" format="2">
  <advance width="871"/>
  <unicode hex="00C6"/>
  <outline>
    <contour>
      <point x="12" y="0" type="line"/>
      <point x="150" y="0" type="line"/>
      <point x="179" y="116" type="line"/>
      <point x="392" y="116" type="line"/>
      <point x="392" y="0" type="line"/>
      <point x="830" y="0" type="line"/>
      <point x="830" y="132" type="line"/>
      <point x="528" y="132" type="line"/>
      <point x="528" y="284" type="line"/>
      <point x="770" y="284" type="line"/>
      <point x="770" y="415" type="line"/>
      <point x="528" y="415" type="line"/>
      <point x="528" y="558" type="line"/>
      <point x="830" y="558" type="line"/>
      <point x="830" y="690" type="line"/>
      <point x="196" y="690" type="line"/>
    </contour>
    <contour>
      <point x="213" y="249" type="line"/>
      <point x="293" y="558" type="line"/>
      <point x="393" y="558" type="line"/>
      <point x="392" y="249" type="line"/>
    </contour>
  </outline>
</glyph>
<glyph name="multiply" format="2">
  <advance width="560"/>
  <unicode hex="00D7"/>
  <outline>
    <contour>
      <point x="419" y="26" type="line"/>
      <point x="504" y="111" type="line"/>
      <point x="361" y="250" type="line"/>
      <point x="504" y="390" type="line"/>
      <point x="420" y="475" type="line"/>
      <point x="280" y="332" type="line"/>
      <point x="142" y="473" type="line"/>
      <point x="57" y="388" type="line"/>
      <point x="198" y="250" type="line"/>
      <point x="56" y="111" type="line"/>
      <point x="141" y="27" type="line"/>
      <point x="280" y="168" type="line"/>
    </contour>
  </outline>
</glyph>
<glyph name="Oslash" format="2">
  <advance width="652"/>
  <unicode hex="00D8"/>
  <outline>
    <contour>
      <point x="74" y="-78" type="line"/>
      <point x="172" y="-127" type="line"/>
      <point x="588" y="767" type="line"/>
      <point x="488" y="810" type="line"/>
    </contour>
    <component base="O"/>
  </outline>
</glyph>
<glyph name="Thorn" format="2">
  <advance width="596"/>
  <unicode hex="00DE"/>
  <outline>
    <contour>
      <point x="74" y="0" type="line"/>
      <point x="212" y="0" type="line"/>
      <point x="212" y="99" type="line"/>
      <point x="324" y="99" type="line" smooth="yes"/>
      <point x="484" y="99"/>
      <point x="568" y="193"/>
      <point x="568" y="353" type="curve" smooth="yes"/>
      <point x="568" y="513"/>
      <point x="484" y="592"/>
      <point x="324" y="592" type="curve" smooth="yes"/>
      <point x="212" y="592" type="line"/>
      <point x="212" y="690" type="line"/>
      <point x="74" y="690" type="line"/>
    </contour>
    <contour>
      <point x="212" y="233" type="line"/>
      <point x="212" y="460" type="line"/>
      <point x="323" y="460" type="line" smooth="yes"/>
      <point x="392" y="460"/>
      <point x="428" y="427"/>
      <point x="428" y="353" type="curve" smooth="yes"/>
      <point x="428" y="278"/>
      <point x="392" y="233"/>
      <point x="323" y="233" type="curve" smooth="yes"/>
    </contour>
  </outline>
</glyph>
<glyph name="germandbls" format="2">
  <advance width="611"/>
  <unicode hex="00DF"/>
  <outline>
    <contour>
      <point x="386" y="-12" type="curve" smooth="yes"/>
      <point x="531" y="-12"/>
      <point x="588" y="27"/>
      <point x="588" y="164" type="curve" smooth="yes"/>
      <point x="588" y="245"/>
      <point x="552" y="273"/>
      <point x="464" y="314" type="curve" smooth="yes"/>
      <point x="379" y="353"/>
      <point x="370" y="362"/>
      <point x="370" y="381" type="curve" smooth="yes"/>
      <point x="370" y="398"/>
      <point x="379" y="406"/>
      <point x="429" y="428" type="curve" smooth="yes"/>
      <point x="490" y="455"/>
      <point x="523" y="478"/>
      <point x="523" y="555" type="curve" smooth="yes"/>
      <point x="523" y="669"/>
      <point x="443" y="712"/>
      <point x="293" y="712" type="curve" smooth="yes"/>
      <point x="129" y="712"/>
      <point x="62" y="659"/>
      <point x="62" y="522" type="curve" smooth="yes"/>
      <point x="62" y="0" type="line"/>
      <point x="196" y="0" type="line"/>
      <point x="196" y="519" type="line" smooth="yes"/>
      <point x="196" y="571"/>
      <point x="217" y="594"/>
      <point x="293" y="594" type="curve" smooth="yes"/>
      <point x="363" y="594"/>
      <point x="385" y="580"/>
      <point x="385" y="545" type="curve" smooth="yes"/>
      <point x="385" y="525"/>
      <point x="373" y="515"/>
      <point x="309" y="489" type="curve" smooth="yes"/>
      <point x="255" y="467"/>
      <point x="232" y="433"/>
      <point x="232" y="368" type="curve" smooth="yes"/>
      <point x="232" y="296"/>
      <point x="265" y="257"/>
      <point x="359" y="217" type="curve" smooth="yes"/>
      <point x="441" y="182"/>
      <point x="450" y="174"/>
      <point x="450" y="144" type="curve" smooth="yes"/>
      <point x="450" y="123"/>
      <point x="435" y="106"/>
      <point x="370" y="106" type="curve" smooth="yes"/>
      <point x="343" y="106"/>
      <point x="278" y="113"/>
      <point x="236" y="118" type="curve"/>
      <point x="232" y="11" type="line"/>
      <point x="270" y="1"/>
      <point x="338" y="-12"/>
    </contour>
  </outline>
</glyph>
<glyph name="oslash" format="2">
  <advance width="532"/>
  <unicode hex="00F8"/>
  <outline>
    <contour>
      <point x="81" y="-78" type="line"/>
      <point x="162" y="-108" type="line"/>
      <point x="443" y="577" type="line"/>
      <point x="362" y="607" type="line"/>
    </contour>
    <component base="o"/>
  </outline>
</glyph>
<glyph name="Dcroat" format="2">
  <advance width="642"/>
  <unicode hex="0110"/>
  <outline>
    <contour>
      <point x="25" y="277" type="line"/>
      <point x="345" y="277" type="line"/>
      <point x="345" y="409" type="line"/>
      <point x="25" y="409" type="line"/>
    </contour>
    <component base="D" xOffset="5"/>
  </outline>
</glyph>
<glyph name="dcroat" format="2">
  <advance width="549"/>
  <unicode hex="0111"/>
  <outline>
    <contour>
      <point x="129" y="622" type="line"/>
      <point x="456" y="622" type="line"/>
      <point x="456" y="738" type="line"/>
      <point x="129" y="738" type="line"/>
    </contour>
    <component base="d"/>
  </outline>
</glyph>
<glyph name="gcommaaccent" format="2">
  <advance width="534"/>
  <unicode hex="0123"/>
  <outline>
    <contour>
      <point x="170" y="583" type="line"/>
      <point x="300" y="583" type="line"/>
      <point x="346" y="817" type="line"/>
      <point x="225" y="817" type="line"/>
    </contour>
    <component base="g"/>
  </outline>
</glyph>
<glyph name="hbar" format="2">
  <advance width="553"/>
  <unicode hex="0127"/>
  <outline>
    <contour>
      <point x="12" y="532" type="line"/>
      <point x="339" y="532" type="line"/>
      <point x="339" y="648" type="line"/>
      <point x="12" y="648" type="line"/>
    </contour>
    <component base="h"/>
  </outline>
</glyph>
<glyph name="lslash" format="2">
  <advance width="381"/>
  <unicode hex="0142"/>
  <outline>
    <contour>
      <point x="68" y="183" type="line"/>
      <point x="381" y="402" type="line"/>
      <point x="316" y="492" type="line"/>
      <point x="3" y="273" type="line"/>
    </contour>
    <component base="l" xOffset="51"/>
  </outline>
</glyph>
<glyph name="eng" format="2">
  <advance width="552"/>
  <unicode hex="014B"/>
  <outline>
    <contour>
      <point x="318" y="-248" type="line"/>
      <point x="467" y="-178"/>
      <point x="496" y="-134"/>
      <point x="496" y="5" type="curve" smooth="yes"/>
      <point x="496" y="261" type="line" smooth="yes"/>
      <point x="496" y="413"/>
      <point x="454" y="512"/>
      <point x="324" y="512" type="curve" smooth="yes"/>
      <point x="290" y="512"/>
      <point x="230" y="492"/>
      <point x="195" y="477" type="curve"/>
      <point x="195" y="499" type="line"/>
      <point x="61" y="499" type="line"/>
      <point x="61" y="0" type="line"/>
      <point x="195" y="0" type="line"/>
      <point x="195" y="371" type="line"/>
      <point x="224" y="379"/>
      <point x="272" y="389"/>
      <point x="296" y="389" type="curve" smooth="yes"/>
      <point x="351" y="389"/>
      <point x="362" y="327"/>
      <point x="362" y="261" type="curve" smooth="yes"/>
      <point x="362" y="0" type="line" smooth="yes"/>
      <point x="362" y="-72"/>
      <point x="349" y="-87"/>
      <point x="258" y="-137" type="curve"/>
    </contour>
  </outline>
</glyph>
<glyph name="tcaron" format="2">
  <advance width="487"/>
  <unicode hex="0165"/>
  <outline>
    <contour>
      <point x="376" y="430" type="line"/>
      <point x="506" y="430" type="line"/>
      <point x="506" y="690" type="line"/>
      <point x="376" y="690" type="line"/>
    </contour>
    <component base="t"/>
  </outline>
</glyph>
<glyph name="Tbar" format="2">
  <advance width="528"/>
  <unicode hex="0166"/>
  <outline>
    <contour>
      <point x="64" y="253" type="line"/>
      <point x="473" y="253" type="line"/>
      <point x="473" y="369" type="line"/>
      <point x="64" y="369" type="line"/>
    </contour>
    <component base="T" xOffset="1"/>
  </outline>
</glyph>
<glyph name="breve" format="2">
  <advance width="268"/>
  <unicode hex="02D8"/>
  <outline>
    <contour>
      <point x="144" y="573" type="curve" smooth="yes"/>
      <point x="244" y="573"/>
      <point x="298" y="650"/>
      <point x="308" y="730" type="curve"/>
      <point x="207" y="730" type="line"/>
      <point x="203" y="691"/>
      <point x="182" y="664"/>
      <point x="144" y="664" type="curve" smooth="yes"/>
      <point x="108" y="664"/>
      <point x="86" y="690"/>
      <point x="81" y="730" type="curve"/>
      <point x="-20" y="730" type="line"/>
      <point x="-10" y="650"/>
      <point x="44" y="573"/>
    </contour>
  </outline>
</glyph>
<glyph name="ogonek" format="2">
  <advance width="474"/>
  <unicode hex="02DB"/>
  <outline>
    <contour>
      <point x="332" y="-216" type="curve" smooth="yes"/>
      <point x="354" y="-216"/>
      <point x="391" y="-212"/>
      <point x="430" y="-205" type="curve"/>
      <point x="418" y="-110" type="line"/>
      <point x="405" y="-112"/>
      <point x="385" y="-114"/>
      <point x="376" y="-114" type="curve" smooth="yes"/>
      <point x="355" y="-114"/>
      <point x="344" y="-102"/>
      <point x="344" y="-82" type="curve" smooth="yes"/>
      <point x="344" y="-56"/>
      <point x="363" y="-30"/>
      <point x="402" y="1" type="curve"/>
      <point x="300" y="11" type="line"/>
      <point x="256" y="-21"/>
      <point x="219" y="-65"/>
      <point x="219" y="-120" type="curve" smooth="yes"/>
      <point x="219" y="-181"/>
      <point x="265" y="-216"/>
    </contour>
  </outline>
</glyph>
<glyph name="dal-ar" format="2">
  <advance width="477"/>
  <unicode hex="062F"/>
  <anchor x="241" y="-100" name="bottom"/>
  <anchor x="158" y="573" name="top"/>
  <outline>
    <contour>
      <point x="40" y="0" type="line"/>
      <point x="427" y="0" type="line"/>
      <point x="427" y="232" type="line" smooth="yes"/>
      <point x="427" y="433"/>
      <point x="333" y="500"/>
      <point x="173" y="500" type="curve" smooth="yes"/>
      <point x="92" y="500" type="line"/>
      <point x="92" y="380" type="line"/>
      <point x="173" y="380" type="line" smooth="yes"/>
      <point x="268" y="380"/>
      <point x="293" y="355"/>
      <point x="293" y="232" type="curve" smooth="yes"/>
      <point x="293" y="20" type="line"/>
      <point x="407" y="120" type="line"/>
      <point x="40" y="120" type="line"/>
    </contour>
  </outline>
</glyph>
<glyph name="ain-ar" format="2">
  <advance width="546"/>
  <unicode hex="0639"/>
  <anchor x="270" y="-400" name="bottom"/>
  <anchor x="285" y="573" name="top"/>
  <outline>
    <contour>
      <point x="310" y="-332" type="curve" smooth="yes"/>
      <point x="350" y="-332"/>
      <point x="394" y="-327"/>
      <point x="486" y="-306" type="curve"/>
      <point x="466" y="-198" type="line"/>
      <point x="394" y="-208"/>
      <point x="344" y="-212"/>
      <point x="312" y="-212" type="curve" smooth="yes"/>
      <point x="211" y="-212"/>
      <point x="174" y="-174"/>
      <point x="174" y="-106" type="curve" smooth="yes"/>
      <point x="174" y="-38"/>
      <point x="211" y="0"/>
      <point x="312" y="0" type="curve" smooth="yes"/>
      <point x="461" y="0" type="line"/>
      <point x="461" y="120" type="line"/>
      <point x="312" y="120" type="line" smooth="yes"/>
      <point x="145" y="120"/>
      <point x="40" y="35"/>
      <point x="40" y="-105" type="curve" smooth="yes"/>
      <point x="40" y="-247"/>
      <point x="146" y="-332"/>
    </contour>
    <contour>
      <point x="172" y="3" type="curve"/>
      <point x="259" y="95" type="line"/>
      <point x="218" y="129"/>
      <point x="195" y="179"/>
      <point x="195" y="236" type="curve" smooth="yes"/>
      <point x="195" y="322"/>
      <point x="247" y="380"/>
      <point x="325" y="380" type="curve" smooth="yes"/>
      <point x="348" y="380"/>
      <point x="373" y="375"/>
      <point x="403" y="364" type="curve"/>
      <point x="449" y="477" type="line"/>
      <point x="408" y="492"/>
      <point x="361" y="500"/>
      <point x="322" y="500" type="curve" smooth="yes"/>
      <point x="174" y="500"/>
      <point x="61" y="388"/>
      <point x="61" y="235" type="curve" smooth="yes"/>
      <point x="61" y="145"/>
      <point x="100" y="64"/>
    </contour>
  </outline>
</glyph>
<glyph name="damma-ar" format="2">
  <unicode hex="064F"/>
  <anchor x="155" y="528" name="_top"/>
  <anchor x="155" y="766" name="top"/>
  <outline>
    <contour>
      <point x="74" y="601" type="curve"/>
      <point x="146" y="601" type="line"/>
      <point x="146" y="624"/>
      <point x="160" y="643"/>
      <point x="177" y="643" type="curve" smooth="yes"/>
      <point x="195" y="643"/>
      <point x="209" y="624"/>
      <point x="209" y="601" type="curve"/>
      <point x="282" y="601" type="line"/>
      <point x="282" y="664"/>
      <point x="236" y="714"/>
      <point x="177" y="714" type="curve" smooth="yes"/>
      <point x="119" y="714"/>
      <point x="74" y="664"/>
    </contour>
    <contour>
      <point x="19" y="528" type="line"/>
      <point x="282" y="528" type="line"/>
      <point x="282" y="601" type="line"/>
      <point x="19" y="601" type="line"/>
    </contour>
  </outline>
</glyph>
<glyph name="six-ar" format="2">
  <advance width="518"/>
  <unicode hex="0666"/>
  <outline>
    <contour>
      <point x="274" y="0" type="line"/>
      <point x="408" y="0" type="line"/>
      <point x="408" y="660" type="line"/>
      <point x="30" y="660" type="line"/>
      <point x="30" y="540" type="line"/>
      <point x="408" y="540" type="line"/>
      <point x="274" y="660" type="line"/>
    </contour>
  </outline>
</glyph>
<glyph name="seven-ar" format="2">
  <advance width="681"/>
  <unicode hex="0667"/>
  <outline>
    <contour>
      <point x="246" y="0" type="line"/>
      <point x="428" y="0" type="line"/>
      <point x="651" y="660" type="line"/>
      <point x="512" y="660" type="line"/>
      <point x="321" y="53" type="line"/>
      <point x="388" y="120" type="line"/>
      <point x="246" y="120" type="line"/>
      <point x="353" y="52" type="line"/>
      <point x="168" y="660" type="line"/>
      <point x="30" y="660" type="line"/>
    </contour>
  </outline>
</glyph>
<glyph name="qafDotless-ar" format="2">
  <advance width="857"/>
  <unicode hex="066F"/>
  <anchor x="429" y="-360" name="bottom"/>
  <anchor x="579" y="573" name="top"/>
  <outline>
    <contour>
      <point x="303" y="-266" type="curve" smooth="yes"/>
      <point x="535" y="-266" type="line" smooth="yes"/>
      <point x="666" y="-266"/>
      <point x="787" y="-197"/>
      <point x="787" y="-58" type="curve" smooth="yes"/>
      <point x="787" y="500" type="line"/>
      <point x="545" y="500" type="line" smooth="yes"/>
      <point x="370" y="500"/>
      <point x="322" y="422"/>
      <point x="322" y="250" type="curve" smooth="yes"/>
      <point x="322" y="78"/>
      <point x="370" y="0"/>
      <point x="545" y="0" type="curve" smooth="yes"/>
      <point x="653" y="0" type="line"/>
      <point x="653" y="120" type="line"/>
      <point x="545" y="120" type="line" smooth="yes"/>
      <point x="466" y="120"/>
      <point x="456" y="125"/>
      <point x="456" y="250" type="curve" smooth="yes"/>
      <point x="456" y="375"/>
      <point x="466" y="380"/>
      <point x="545" y="380" type="curve" smooth="yes"/>
      <point x="727" y="380" type="line"/>
      <point x="653" y="440" type="line"/>
      <point x="653" y="-58" type="line" smooth="yes"/>
      <point x="653" y="-115"/>
      <point x="614" y="-146"/>
      <point x="535" y="-146" type="curve" smooth="yes"/>
      <point x="303" y="-146" type="line" smooth="yes"/>
      <point x="221" y="-146"/>
      <point x="176" y="-121"/>
      <point x="176" y="-38" type="curve" smooth="yes"/>
      <point x="176" y="9"/>
      <point x="190" y="100"/>
      <point x="212" y="235" type="curve"/>
      <point x="80" y="255" type="line"/>
      <point x="63" y="155"/>
      <point x="40" y="3"/>
      <point x="40" y="-53" type="curve" smooth="yes"/>
      <point x="40" y="-180"/>
      <point x="156" y="-266"/>
    </contour>
  </outline>
</glyph>
<glyph name="fehDotless-ar" format="2">
  <advance width="1051"/>
  <unicode hex="06A1"/>
  <anchor x="413" y="-100" name="bottom"/>
  <anchor x="763" y="573" name="top"/>
  <outline>
    <contour>
      <point x="351" y="0" type="curve" smooth="yes"/>
      <point x="971" y="0" type="line"/>
      <point x="971" y="500" type="line"/>
      <point x="729" y="500" type="line" smooth="yes"/>
      <point x="554" y="500"/>
      <point x="506" y="422"/>
      <point x="506" y="250" type="curve" smooth="yes"/>
      <point x="506" y="78"/>
      <point x="554" y="0"/>
      <point x="729" y="0" type="curve"/>
      <point x="729" y="120" type="line"/>
      <point x="650" y="120"/>
      <point x="640" y="125"/>
      <point x="640" y="250" type="curve" smooth="yes"/>
      <point x="640" y="375"/>
      <point x="650" y="380"/>
      <point x="729" y="380" type="curve" smooth="yes"/>
      <point x="911" y="380" type="line"/>
      <point x="837" y="440" type="line"/>
      <point x="837" y="60" type="line"/>
      <point x="911" y="120" type="line"/>
      <point x="351" y="120" type="line" smooth="yes"/>
      <point x="216" y="120"/>
      <point x="188" y="143"/>
      <point x="188" y="212" type="curve" smooth="yes"/>
      <point x="188" y="269"/>
      <point x="208" y="345"/>
      <point x="211" y="367" type="curve"/>
      <point x="80" y="392" type="line"/>
      <point x="77" y="368"/>
      <point x="54" y="279"/>
      <point x="54" y="213" type="curve" smooth="yes"/>
      <point x="54" y="67"/>
      <point x="152" y="0"/>
    </contour>
  </outline>
</glyph>
<glyph name="yehbarree-ar" format="2">
  <advance width="754"/>
  <unicode hex="06D2"/>
  <anchor x="372" y="-340" name="bottom"/>
  <anchor x="171" y="190" name="top"/>
  <outline>
    <contour>
      <point x="309" y="-243" type="curve" smooth="yes"/>
      <point x="626" y="-243" type="line"/>
      <point x="626" y="-123" type="line"/>
      <point x="309" y="-123" type="line" smooth="yes"/>
      <point x="234" y="-123"/>
      <point x="174" y="-117"/>
      <point x="174" y="-25" type="curve" smooth="yes"/>
      <point x="174" y="61" type="line"/>
      <point x="113" y="0" type="line"/>
      <point x="435" y="0" type="line" smooth="yes"/>
      <point x="644" y="0"/>
      <point x="704" y="113"/>
      <point x="704" y="247" type="curve" smooth="yes"/>
      <point x="704" y="381" type="line"/>
      <point x="570" y="381" type="line"/>
      <point x="570" y="247" type="line" smooth="yes"/>
      <point x="570" y="149"/>
      <point x="539" y="120"/>
      <point x="435" y="120" type="curve" smooth="yes"/>
      <point x="134" y="120" type="line"/>
      <point x="40" y="36" type="line"/>
      <point x="40" y="-25" type="line" smooth="yes"/>
      <point x="40" y="-168"/>
      <point x="134" y="-243"/>
    </contour>
  </outline>
</glyph>
<glyph name="dagger" format="2">
  <advance width="480"/>
  <unicode hex="2020"/>
  <outline>
    <contour>
      <point x="183" y="-71" type="line"/>
      <point x="297" y="-71" type="line"/>
      <point x="307" y="386" type="line"/>
      <point x="452" y="386" type="line"/>
      <point x="452" y="500" type="line"/>
      <point x="307" y="500" type="line"/>
      <point x="307" y="680" type="line"/>
      <point x="173" y="680" type="line"/>
      <point x="173" y="500" type="line"/>
      <point x="28" y="500" type="line"/>
      <point x="28" y="386" type="line"/>
      <point x="173" y="386" type="line"/>
    </contour>
  </outline>
</glyph>
<glyph name="guilsinglleft" format="2">
  <advance width="318"/>
  <unicode hex="2039"/>
  <outline>
    <contour>
      <point x="263" y="23" type="line"/>
      <point x="263" y="158" type="line"/>
      <point x="154" y="244" type="line"/>
      <point x="263" y="319" type="line"/>
      <point x="263" y="454" type="line"/>
      <point x="40" y="290" type="line"/>
      <point x="40" y="194" type="line"/>
    </contour>
  </outline>
</glyph>
<glyph name="Delta" format="2">
  <advance width="560"/>
  <unicode hex="2206"/>
  <outline>
    <contour>
      <point x="44" y="0" type="line"/>
      <point x="516" y="0" type="line"/>
      <point x="516" y="102" type="line"/>
      <point x="393" y="660" type="line"/>
      <point x="168" y="660" type="line"/>
      <point x="44" y="104" type="line"/>
    </contour>
    <contour>
      <point x="177" y="114" type="line"/>
      <point x="267" y="548" type="line"/>
      <point x="294" y="548" type="line"/>
      <point x="383" y="114" type="line"/>
    </contour>
  </outline>
</glyph>
<glyph name="product" format="2">
  <advance width="560"/>
  <unicode hex="220F"/>
  <outline>
    <contour>
      <point x="84" y="-180" type="line"/>
      <point x="222" y="-180" type="line"/>
      <point x="222" y="640" type="line"/>
      <point x="335" y="640" type="line"/>
      <point x="335" y="-180" type="line"/>
      <point x="473" y="-180" type="line"/>
      <point x="473" y="640" type="line"/>
      <point x="530" y="640" type="line"/>
      <point x="530" y="760" type="line"/>
      <point x="31" y="760" type="line"/>
      <point x="31" y="640" type="line"/>
      <point x="84" y="640" type="line"/>
    </contour>
  </outline>
</glyph>
<glyph name="summation" format="2">
  <advance width="560"/>
  <unicode hex="2211"/>
  <outline>
    <contour>
      <point x="30" y="-180" type="line"/>
      <point x="530" y="-180" type="line"/>
      <point x="530" y="-60" type="line"/>
      <point x="176" y="-60" type="line"/>
      <point x="176" y="-45" type="line"/>
      <point x="391" y="251" type="line"/>
      <point x="391" y="344" type="line"/>
      <point x="176" y="625" type="line"/>
      <point x="176" y="640" type="line"/>
      <point x="530" y="640" type="line"/>
      <point x="530" y="760" type="line"/>
      <point x="30" y="760" type="line"/>
      <point x="30" y="620" type="line"/>
      <point x="268" y="298" type="line"/>
      <point x="30" y="-41" type="line"/>
    </contour>
  </outline>
</glyph>
<glyph name="minus" format="2">
  <advance width="560"/>
  <unicode hex="2212"/>
  <outline>
    <contour>
      <point x="62" y="191" type="line"/>
      <point x="498" y="191" type="line"/>
      <point x="498" y="311" type="line"/>
      <point x="62" y="311" type="line"/>
    </contour>
  </outline>
</glyph>
<glyph name="infinity" format="2">
  <advance width="560"/>
  <unicode hex="221E"/>
  <outline>
    <contour>
      <point x="394" y="121" type="curve" smooth="yes"/>
      <point x="484" y="121"/>
      <point x="533" y="177"/>
      <point x="533" y="292" type="curve" smooth="yes"/>
      <point x="533" y="407"/>
      <point x="484" y="463"/>
      <point x="396" y="463" type="curve" smooth="yes"/>
      <point x="328" y="463"/>
      <point x="283" y="426"/>
      <point x="245" y="292" type="curve"/>
      <point x="283" y="158"/>
      <point x="328" y="121"/>
    </contour>
    <contour>
      <point x="166" y="121" type="curve" smooth="yes"/>
      <point x="232" y="121"/>
      <point x="277" y="158"/>
      <point x="315" y="292" type="curve"/>
      <point x="277" y="426"/>
      <point x="232" y="463"/>
      <point x="164" y="463" type="curve" smooth="yes"/>
      <point x="76" y="463"/>
      <point x="27" y="407"/>
      <point x="27" y="291" type="curve" smooth="yes"/>
      <point x="27" y="177"/>
      <point x="76" y="121"/>
    </contour>
    <contour>
      <point x="185" y="236" type="curve" smooth="yes"/>
      <point x="158" y="236"/>
      <point x="149" y="259"/>
      <point x="149" y="291" type="curve" smooth="yes"/>
      <point x="149" y="325"/>
      <point x="157" y="348"/>
      <point x="185" y="348" type="curve" smooth="yes"/>
      <point x="204" y="348"/>
      <point x="218" y="326"/>
      <point x="235" y="292" type="curve"/>
      <point x="218" y="260"/>
      <point x="204" y="236"/>
    </contour>
    <contour>
      <point x="375" y="236" type="curve" smooth="yes"/>
      <point x="356" y="236"/>
      <point x="342" y="260"/>
      <point x="325" y="292" type="curve"/>
      <point x="342" y="326"/>
      <point x="356" y="348"/>
      <point x="375" y="348" type="curve" smooth="yes"/>
      <point x="403" y="348"/>
      <point x="411" y="325"/>
      <point x="411" y="291" type="curve" smooth="yes"/>
      <point x="411" y="259"/>
      <point x="402" y="236"/>
    </contour>
  </outline>
</glyph>
<glyph name="integral" format="2">
  <advance width="560"/>
  <unicode hex="222B"/>
  <outline>
    <contour>
      <point x="196" y="-199" type="curve" smooth="yes"/>
      <point x="278" y="-199"/>
      <point x="345" y="-158"/>
      <point x="345" y="-16" type="curve" smooth="yes"/>
      <point x="345" y="592" type="line" smooth="yes"/>
      <point x="345" y="642"/>
      <point x="355" y="661"/>
      <point x="393" y="661" type="curve" smooth="yes"/>
      <point x="416" y="661"/>
      <point x="443" y="659"/>
      <point x="457" y="657" type="curve"/>
      <point x="461" y="767" type="line"/>
      <point x="432" y="773"/>
      <point x="384" y="781"/>
      <point x="356" y="781" type="curve" smooth="yes"/>
      <point x="246" y="781"/>
      <point x="207" y="736"/>
      <point x="207" y="593" type="curve" smooth="yes"/>
      <point x="207" y="-13" type="line" smooth="yes"/>
      <point x="207" y="-63"/>
      <point x="194" y="-79"/>
      <point x="156" y="-79" type="curve" smooth="yes"/>
      <point x="136" y="-79"/>
      <point x="114" y="-77"/>
      <point x="103" y="-76" type="curve"/>
      <point x="99" y="-186" type="line"/>
      <point x="124" y="-192"/>
      <point x="168" y="-199"/>
    </contour>
  </outline>
</glyph>
<glyph name="approxequal" format="2">
  <advance width="560"/>
  <unicode hex="2248"/>
  <outline>
    <contour>
      <point x="385" y="265" type="curve" smooth="yes"/>
      <point x="429" y="265"/>
      <point x="476" y="294"/>
      <point x="499" y="316" type="curve"/>
      <point x="491" y="423" type="line"/>
      <point x="464" y="407"/>
      <point x="416" y="385"/>
      <point x="388" y="385" type="curve" smooth="yes"/>
      <point x="338" y="385"/>
      <point x="235" y="429"/>
      <point x="183" y="429" type="curve" smooth="yes"/>
      <point x="138" y="429"/>
      <point x="86" y="399"/>
      <point x="59" y="377" type="curve"/>
      <point x="69" y="270" type="line"/>
      <point x="95" y="287"/>
      <point x="143" y="309"/>
      <point x="179" y="309" type="curve" smooth="yes"/>
      <point x="212" y="309"/>
      <point x="335" y="265"/>
    </contour>
    <contour>
      <point x="385" y="45" type="curve" smooth="yes"/>
      <point x="429" y="45"/>
      <point x="476" y="74"/>
      <point x="499" y="96" type="curve"/>
      <point x="491" y="203" type="line"/>
      <point x="464" y="187"/>
      <point x="416" y="165"/>
      <point x="388" y="165" type="curve" smooth="yes"/>
      <point x="338" y="165"/>
      <point x="235" y="209"/>
      <point x="183" y="209" type="curve" smooth="yes"/>
      <point x="138" y="209"/>
      <point x="86" y="179"/>
      <point x="59" y="157" type="curve"/>
      <point x="69" y="50" type="line"/>
      <point x="95" y="67"/>
      <point x="143" y="89"/>
      <point x="179" y="89" type="curve" smooth="yes"/>
      <point x="212" y="89"/>
      <point x="335" y="45"/>
    </contour>
  </outline>
</glyph>
<glyph name="keheh-ar.fina" format="2">
  <advance width="877"/>
  <unicode hex="FB8F"/>
  <outline>
    <contour>
      <point x="758" y="0" type="line"/>
      <point x="877" y="0" type="line"/>
      <point x="877" y="120" type="line"/>
      <point x="758" y="120" type="line"/>
    </contour>
    <component base="keheh-ar"/>
    <component base="connection_r" xOffset="827"/>
  </outline>
</glyph>
<glyph name="gaf-ar.medi" format="2">
  <advance width="700"/>
  <unicode hex="FB95"/>
  <anchor x="284" y="-100" name="bottom"/>
  <anchor x="124" y="927" name="top"/>
  <outline>
    <contour>
      <point x="15" y="535" type="line"/>
      <point x="67" y="653"/>
      <point x="111" y="711"/>
      <point x="148" y="767" type="curve"/>
      <point x="77" y="809" type="line"/>
      <point x="12" y="711"/>
      <point x="3" y="690"/>
      <point x="-36" y="609" type="curve"/>
    </contour>
    <component base="keheh-ar.medi"/>
  </outline>
</glyph>
<glyph name="twodotshorizontalabove-ar" format="2">
  <advance width="343"/>
  <unicode hex="FBB4"/>
  <outline>
    <contour>
      <point x="6" y="544" type="line"/>
      <point x="140" y="544" type="line"/>
      <point x="140" y="680" type="line"/>
      <point x="6" y="680" type="line"/>
    </contour>
    <contour>
      <point x="203" y="544" type="line"/>
      <point x="337" y="544" type="line"/>
      <point x="337" y="680" type="line"/>
      <point x="203" y="680" type="line"/>
    </contour>
  </outline>
</glyph>
<glyph name="seen_alefMaksura-ar" format="2">
  <advance width="1734"/>
  <unicode hex="FCFB"/>
  <anchor x="1307" y="-100" name="bottom_1"/>
  <anchor x="450" y="-300" name="bottom_2"/>
  <anchor x="867" y="0" name="caret_1"/>
  <anchor x="1307" y="573" name="top_1"/>
  <anchor x="127" y="244" name="top_2"/>
  <outline>
    <contour>
      <point x="330" y="-248" type="curve" smooth="yes"/>
      <point x="613" y="-248" type="line" smooth="yes"/>
      <point x="767" y="-248"/>
      <point x="861" y="-153"/>
      <point x="861" y="-15" type="curve" smooth="yes"/>
      <point x="861" y="117"/>
      <point x="775" y="166"/>
      <point x="647" y="204" type="curve" smooth="yes"/>
      <point x="540" y="233"/>
      <point x="493" y="244"/>
      <point x="493" y="302" type="curve" smooth="yes"/>
      <point x="493" y="354"/>
      <point x="528" y="380"/>
      <point x="611" y="380" type="curve"/>
      <point x="614" y="500" type="line"/>
      <point x="459" y="500"/>
      <point x="359" y="431"/>
      <point x="359" y="291" type="curve" smooth="yes"/>
      <point x="359" y="169"/>
      <point x="436" y="144"/>
      <point x="609" y="89" type="curve" smooth="yes"/>
      <point x="703" y="59"/>
      <point x="727" y="48"/>
      <point x="727" y="-14" type="curve" smooth="yes"/>
      <point x="727" y="-91"/>
      <point x="690" y="-128"/>
      <point x="613" y="-128" type="curve" smooth="yes"/>
      <point x="330" y="-128" type="line" smooth="yes"/>
      <point x="235" y="-128"/>
      <point x="174" y="-80"/>
      <point x="174" y="-10" type="curve" smooth="yes"/>
      <point x="174" y="16"/>
      <point x="182" y="87"/>
      <point x="195" y="170" type="curve"/>
      <point x="63" y="189" type="line"/>
      <point x="49" y="101"/>
      <point x="40" y="24"/>
      <point x="40" y="-12" type="curve" smooth="yes"/>
      <point x="40" y="-148"/>
      <point x="165" y="-248"/>
    </contour>
    <contour>
      <point x="611" y="380" type="line"/>
      <point x="952" y="380" type="line"/>
      <point x="952" y="500" type="line"/>
      <point x="614" y="500" type="line"/>
    </contour>
    <contour>
      <point x="952" y="0" type="line"/>
      <point x="1086" y="0" type="line"/>
      <point x="1086" y="500" type="line"/>
      <point x="952" y="500" type="line"/>
    </contour>
    <contour>
      <point x="1086" y="0" type="line"/>
      <point x="1167" y="0" type="line" smooth="yes"/>
      <point x="1314" y="0"/>
      <point x="1374" y="76"/>
      <point x="1374" y="250" type="curve" smooth="yes"/>
      <point x="1374" y="450" type="line"/>
      <point x="1240" y="450" type="line"/>
      <point x="1240" y="250" type="line" smooth="yes"/>
      <point x="1240" y="136"/>
      <point x="1227" y="120"/>
      <point x="1167" y="120" type="curve" smooth="yes"/>
      <point x="1086" y="120" type="line"/>
    </contour>
    <contour>
      <point x="1401" y="0" type="curve" smooth="yes"/>
      <point x="1664" y="0" type="line"/>
      <point x="1664" y="277" type="line" smooth="yes"/>
      <point x="1664" y="317"/>
      <point x="1648" y="428"/>
      <point x="1636" y="500" type="curve"/>
      <point x="1504" y="480" type="line"/>
      <point x="1519" y="392"/>
      <point x="1530" y="303"/>
      <point x="1530" y="277" type="curve" smooth="yes"/>
      <point x="1530" y="91" type="line"/>
      <point x="1554" y="120" type="line"/>
      <point x="1401" y="120" type="line" smooth="yes"/>
      <point x="1387" y="120"/>
      <point x="1375" y="125"/>
      <point x="1350" y="147" type="curve"/>
      <point x="1261" y="57" type="line"/>
      <point x="1303" y="20"/>
      <point x="1351" y="0"/>
    </contour>
  </outline>
</glyph>
<glyph name="jeem-ar.fina" format="2">
  <advance width="654"/>
  <unicode hex="FE9E"/>
  <outline>
    <contour>
      <point x="348" y="-170" type="line"/>
      <point x="456" y="-170" type="line"/>
      <point x="456" y="-60" type="line"/>
      <point x="348" y="-60" type="line"/>
    </contour>
    <component base="hah-ar.fina.alt"/>
  </outline>
</glyph>
<glyph name="hah-ar.medi" format="2">
  <advance width="630"/>
  <unicode hex="FEA4"/>
  <outline>
    <contour>
      <point x="511" y="0" type="line"/>
      <point x="630" y="0" type="line"/>
      <point x="630" y="120" type="line"/>
      <point x="511" y="120" type="line"/>
    </contour>
    <component base="hah-ar.init"/>
    <component base="connection_r" xOffset="580"/>
  </outline>
</glyph>
<glyph name="seen-ar.fina" format="2">
  <advance width="1335"/>
  <unicode hex="FEB2"/>
  <outline>
    <contour>
      <point x="1216" y="0" type="line"/>
      <point x="1335" y="0" type="line"/>
      <point x="1335" y="120" type="line"/>
      <point x="1216" y="120" type="line"/>
    </contour>
    <component base="seen-ar"/>
    <component base="connection_r" xOffset="1285"/>
  </outline>
</glyph>
<glyph name="sad-ar.medi" format="2">
  <advance width="896"/>
  <unicode hex="FEBC"/>
  <outline>
    <contour>
      <point x="777" y="0" type="line"/>
      <point x="896" y="0" type="line"/>
      <point x="896" y="120" type="line"/>
      <point x="777" y="120" type="line"/>
    </contour>
    <component base="sad-ar.init"/>
    <component base="connection_r" xOffset="846"/>
  </outline>
</glyph>
<glyph name="ain-ar.init" format="2">
  <advance width="586"/>
  <unicode hex="FECB"/>
  <anchor x="330" y="-100" name="bottom"/>
  <anchor x="330" y="573" name="top"/>
  <outline>
    <contour>
      <point x="217" y="3" type="curve"/>
      <point x="304" y="95" type="line"/>
      <point x="263" y="129"/>
      <point x="240" y="179"/>
      <point x="240" y="236" type="curve" smooth="yes"/>
      <point x="240" y="322"/>
      <point x="292" y="380"/>
      <point x="370" y="380" type="curve" smooth="yes"/>
      <point x="393" y="380"/>
      <point x="418" y="375"/>
      <point x="448" y="364" type="curve"/>
      <point x="494" y="477" type="line"/>
      <point x="453" y="492"/>
      <point x="406" y="500"/>
      <point x="367" y="500" type="curve" smooth="yes"/>
      <point x="219" y="500"/>
      <point x="106" y="388"/>
      <point x="106" y="235" type="curve" smooth="yes"/>
      <point x="106" y="145"/>
      <point x="145" y="64"/>
    </contour>
    <contour>
      <point x="0" y="0" type="line"/>
      <point x="506" y="0" type="line"/>
      <point x="506" y="120" type="line"/>
      <point x="0" y="120" type="line"/>
    </contour>
    <component base="connection_l"/>
  </outline>
</glyph>
<glyph name="lam-ar.medi" format="2">
  <advance width="402"/>
  <unicode hex="FEE0"/>
  <outline>
    <contour>
      <point x="283" y="0" type="line"/>
      <point x="402" y="0" type="line"/>
      <point x="402" y="120" type="line"/>
      <point x="283" y="120" type="line"/>
    </contour>
    <component base="lam-ar.init"/>
    <component base="connection_r" xOffset="352"/>
  </outline>
</glyph>
<glyph name="heh-ar.medi" format="2">
  <advance width="723"/>
  <unicode hex="FEEC"/>
  <anchor x="333" y="-350" name="bottom"/>
  <anchor x="333" y="573" name="top"/>
  <outline>
    <contour>
      <point x="0" y="0" type="line"/>
      <point x="604" y="0" type="line"/>
      <point x="604" y="245" type="line" smooth="yes"/>
      <point x="604" y="432"/>
      <point x="513" y="500"/>
      <point x="333" y="500" type="curve" smooth="yes"/>
      <point x="248" y="500"/>
      <point x="174" y="485"/>
      <point x="142" y="473" type="curve"/>
      <point x="130" y="428"/>
      <point x="113" y="335"/>
      <point x="113" y="237" type="curve" smooth="yes"/>
      <point x="113" y="148"/>
      <point x="127" y="65"/>
      <point x="137" y="32" type="curve"/>
      <point x="265" y="67" type="line"/>
      <point x="256" y="98"/>
      <point x="247" y="177"/>
      <point x="247" y="238" type="curve" smooth="yes"/>
      <point x="247" y="302"/>
      <point x="257" y="388"/>
      <point x="271" y="442" type="curve"/>
      <point x="189" y="361" type="line"/>
      <point x="221" y="372"/>
      <point x="274" y="380"/>
      <point x="337" y="380" type="curve" smooth="yes"/>
      <point x="446" y="380"/>
      <point x="470" y="356"/>
      <point x="470" y="245" type="curve" smooth="yes"/>
      <point x="470" y="0" type="line"/>
      <point x="604" y="120" type="line"/>
      <point x="0" y="120" type="line"/>
    </contour>
    <contour>
      <point x="333" y="-247" type="curve" smooth="yes"/>
      <point x="513" y="-247"/>
      <point x="604" y="-197"/>
      <point x="604" y="-60" type="curve" smooth="yes"/>
      <point x="604" y="120" type="line"/>
      <point x="470" y="120" type="line"/>
      <point x="470" y="-60" type="line" smooth="yes"/>
      <point x="470" y="-114"/>
      <point x="460" y="-127"/>
      <point x="333" y="-127" type="curve" smooth="yes"/>
      <point x="273" y="-127"/>
      <point x="211" y="-121"/>
      <point x="178" y="-111" type="curve"/>
      <point x="268" y="-186" type="line"/>
      <point x="256" y="-152"/>
      <point x="247" y="-98"/>
      <point x="247" y="-54" type="curve" smooth="yes"/>
      <point x="247" y="-18"/>
      <point x="255" y="37"/>
      <point x="261" y="52" type="curve"/>
      <point x="137" y="97" type="line"/>
      <point x="127" y="72"/>
      <point x="113" y="11"/>
      <point x="113" y="-54" type="curve" smooth="yes"/>
      <point x="113" y="-126"/>
      <point x="130" y="-194"/>
      <point x="142" y="-227" type="curve"/>
      <point x="174" y="-236"/>
      <point x="248" y="-247"/>
    </contour>
    <contour>
      <point x="604" y="0" type="line"/>
      <point x="723" y="0" type="line"/>
      <point x="723" y="120" type="line"/>
      <point x="604" y="120" type="line"/>
    </contour>
    <component base="connection_r" xOffset="673"/>
    <component base="connection_l"/>
  </outline>
</glyph>
<glyph name="acute.cap" format="2">
  <advance width="268"/>
  <outline>
    <contour>
      <point x="253" y="945" type="line"/>
      <point x="1" y="839" type="line"/>
      <point x="34" y="746" type="line"/>
      <point x="294" y="825" type="line"/>
    </contour>
  </outline>
</glyph>
<glyph name="alefMaksura_alefMaksura-ar.fina.alt" format="2">
  <advance width="1235"/>
  <anchor x="1049" y="-60" name="bottom_1"/>
  <anchor x="450" y="-300" name="bottom_2"/>
  <anchor x="622.5" y="0" name="caret_1"/>
  <anchor x="951" y="573" name="top_1"/>
  <anchor x="127" y="244" name="top_2"/>
  <outline>
    <contour>
      <point x="330" y="-248" type="curve" smooth="yes"/>
      <point x="613" y="-248" type="line" smooth="yes"/>
      <point x="767" y="-248"/>
      <point x="861" y="-153"/>
      <point x="861" y="-15" type="curve" smooth="yes"/>
      <point x="861" y="117"/>
      <point x="775" y="166"/>
      <point x="647" y="204" type="curve" smooth="yes"/>
      <point x="540" y="233"/>
      <point x="493" y="244"/>
      <point x="493" y="302" type="curve" smooth="yes"/>
      <point x="493" y="354"/>
      <point x="528" y="380"/>
      <point x="611" y="380" type="curve"/>
      <point x="614" y="500" type="line"/>
      <point x="459" y="500"/>
      <point x="359" y="431"/>
      <point x="359" y="291" type="curve" smooth="yes"/>
      <point x="359" y="169"/>
      <point x="436" y="144"/>
      <point x="609" y="89" type="curve" smooth="yes"/>
      <point x="703" y="59"/>
      <point x="727" y="48"/>
      <point x="727" y="-14" type="curve" smooth="yes"/>
      <point x="727" y="-91"/>
      <point x="690" y="-128"/>
      <point x="613" y="-128" type="curve" smooth="yes"/>
      <point x="330" y="-128" type="line" smooth="yes"/>
      <point x="235" y="-128"/>
      <point x="174" y="-80"/>
      <point x="174" y="-10" type="curve" smooth="yes"/>
      <point x="174" y="16"/>
      <point x="182" y="87"/>
      <point x="195" y="170" type="curve"/>
      <point x="63" y="189" type="line"/>
      <point x="49" y="101"/>
      <point x="40" y="24"/>
      <point x="40" y="-12" type="curve" smooth="yes"/>
      <point x="40" y="-148"/>
      <point x="165" y="-248"/>
    </contour>
    <contour>
      <point x="982" y="0" type="line"/>
      <point x="1235" y="0" type="line"/>
      <point x="1235" y="120" type="line"/>
      <point x="1052" y="120" type="line"/>
      <point x="1116" y="70" type="line"/>
      <point x="1116" y="500" type="line"/>
      <point x="982" y="500" type="line"/>
    </contour>
    <contour>
      <point x="611" y="380" type="line"/>
      <point x="982" y="380" type="line"/>
      <point x="982" y="500" type="line"/>
      <point x="614" y="500" type="line"/>
    </contour>
    <component base="connection_r" xOffset="1185"/>
  </outline>
</glyph>
<glyph name="bracketright.cap" format="2">
  <advance width="355"/>
  <outline>
    <contour>
      <point x="287" y="-93" type="line"/>
      <point x="287" y="779" type="line"/>
      <point x="35" y="779" type="line"/>
      <point x="35" y="659" type="line"/>
      <point x="150" y="659" type="line"/>
      <point x="150" y="27" type="line"/>
      <point x="35" y="27" type="line"/>
      <point x="35" y="-93" type="line"/>
    </contour>
  </outline>
</glyph>
<glyph name="breve.cap" format="2">
  <advance width="268"/>
  <outline>
    <contour>
      <point x="156" y="759" type="curve" smooth="yes"/>
      <point x="277" y="759"/>
      <point x="333" y="825"/>
      <point x="343" y="910" type="curve"/>
      <point x="222" y="910" type="line"/>
      <point x="218" y="878"/>
      <point x="195" y="853"/>
      <point x="156" y="853" type="curve" smooth="yes"/>
      <point x="119" y="853"/>
      <point x="96" y="878"/>
      <point x="91" y="910" type="curve"/>
      <point x="-30" y="910" type="line"/>
      <point x="-20" y="825"/>
      <point x="35" y="759"/>
    </contour>
  </outline>
</glyph>
<glyph name="circumflex.cap" format="2">
  <advance width="486"/>
  <outline>
    <contour>
      <point x="24" y="765" type="line"/>
      <point x="166" y="765" type="line"/>
      <point x="218" y="821" type="line"/>
      <point x="267" y="765" type="line"/>
      <point x="409" y="765" type="line"/>
      <point x="275" y="914" type="line"/>
      <point x="158" y="914" type="line"/>
    </contour>
  </outline>
</glyph>
<glyph name="dieresis.cap" format="2">
  <advance width="268"/>
  <outline>
    <contour>
      <point x="172" y="764" type="line"/>
      <point x="300" y="764" type="line"/>
      <point x="300" y="896" type="line"/>
      <point x="172" y="896" type="line"/>
    </contour>
    <contour>
      <point x="-42" y="764" type="line"/>
      <point x="86" y="764" type="line"/>
      <point x="86" y="896" type="line"/>
      <point x="-42" y="896" type="line"/>
    </contour>
  </outline>
</glyph>
<glyph name="dotaccent.cap" format="2">
  <advance width="268"/>
  <outline>
    <contour>
      <point x="67" y="767" type="line"/>
      <point x="201" y="767" type="line"/>
      <point x="201" y="902" type="line"/>
      <point x="67" y="902" type="line"/>
    </contour>
  </outline>
</glyph>
<glyph name="oslashacute.rvrn" format="2">
  <advance width="532"/>
  <outline>
    <contour>
      <point x="443" y="577" type="line"/>
      <point x="362" y="607" type="line"/>
      <point x="295" y="450" type="line"/>
      <point x="376" y="414" type="line"/>
    </contour>
    <contour>
      <point x="81" y="-78" type="line"/>
      <point x="162" y="-108" type="line"/>
      <point x="212" y="11" type="line"/>
      <point x="131" y="46" type="line"/>
    </contour>
    <component base="o"/>
    <component base="acute" xOffset="116"/>
  </outline>
</glyph>
<glyph name="two.pnum" format="2">
  <advance width="487"/>
  <outline>
    <contour>
      <point x="44" y="0" type="line"/>
      <point x="445" y="0" type="line"/>
      <point x="445" y="115" type="line"/>
      <point x="225" y="115" type="line"/>
      <point x="308" y="173" type="line" smooth="yes"/>
      <point x="395" y="234"/>
      <point x="439" y="273"/>
      <point x="439" y="360" type="curve" smooth="yes"/>
      <point x="439" y="475"/>
      <point x="351" y="509"/>
      <point x="243" y="509" type="curve" smooth="yes"/>
      <point x="185" y="509"/>
      <point x="96" y="498"/>
      <point x="44" y="489" type="curve"/>
      <point x="52" y="375" type="line"/>
      <point x="52" y="376"/>
      <point x="165" y="389"/>
      <point x="197" y="389" type="curve" smooth="yes"/>
      <point x="273" y="389"/>
      <point x="304" y="381"/>
      <point x="304" y="341" type="curve" smooth="yes"/>
      <point x="304" y="301"/>
      <point x="271" y="271"/>
      <point x="171" y="200" type="curve" smooth="yes"/>
      <point x="44" y="109" type="line"/>
    </contour>
  </outline>
</glyph>
<glyph name="wasla-ar" format="2">
  <advance width="389"/>
  <anchor x="195" y="525" name="_top"/>
  <anchor x="195" y="799" name="top"/>
  <outline>
    <contour>
      <point x="68" y="598" type="curve"/>
      <point x="148" y="598" type="line"/>
      <point x="148" y="632"/>
      <point x="175" y="657"/>
      <point x="210" y="657" type="curve" smooth="yes"/>
      <point x="246" y="657"/>
      <point x="273" y="632"/>
      <point x="273" y="598" type="curve"/>
      <point x="353" y="598" type="line"/>
      <point x="353" y="674"/>
      <point x="290" y="732"/>
      <point x="210" y="732" type="curve" smooth="yes"/>
      <point x="130" y="732"/>
      <point x="68" y="674"/>
    </contour>
    <contour>
      <point x="36" y="525" type="line"/>
      <point x="353" y="525" type="line"/>
      <point x="353" y="598" type="line"/>
      <point x="36" y="598" type="line"/>
    </contour>
  </outline>
</glyph>
